<svg width="29" height="29" viewBox="0 0 29 29" fill="none" xmlns="http://www.w3.org/2000/svg">
<path d="M22.7972 28.5167L13.05 18.6889C12.513 18.9037 11.9692 19.0648 11.4188 19.1722C10.8683 19.2796 10.2843 19.3333 9.66667 19.3333C6.98148 19.3333 4.69907 18.3935 2.81944 16.5139C0.939815 14.6343 0 12.3519 0 9.66667C0 8.7 0.134259 7.78032 0.402778 6.90764C0.671296 6.03495 1.04722 5.20926 1.53056 4.43056L7.41111 10.3111L10.3111 7.41111L4.43056 1.53056C5.20926 1.04722 6.03495 0.671296 6.90764 0.402778C7.78032 0.134259 8.7 0 9.66667 0C12.3519 0 14.6343 0.939815 16.5139 2.81944C18.3935 4.69907 19.3333 6.98148 19.3333 9.66667C19.3333 10.2843 19.2796 10.8683 19.1722 11.4188C19.0648 11.9692 18.9037 12.513 18.6889 13.05L28.5167 22.7972C28.8389 23.1194 29 23.5088 29 23.9653C29 24.4218 28.8389 24.8111 28.5167 25.1333L25.1333 28.5167C24.8111 28.8389 24.4218 29 23.9653 29C23.5088 29 23.1194 28.8389 22.7972 28.5167ZM23.9653 25.0931L25.0528 24.0056L14.7417 13.6944C15.225 13.1574 15.5741 12.5331 15.7889 11.8215C16.0037 11.11 16.1111 10.3917 16.1111 9.66667C16.1111 8.05556 15.5942 6.65255 14.5604 5.45764C13.5266 4.26273 12.2444 3.54444 10.7139 3.30278L13.6944 6.28333C14.0167 6.60556 14.1778 6.98148 14.1778 7.41111C14.1778 7.84074 14.0167 8.21667 13.6944 8.53889L8.53889 13.6944C8.21667 14.0167 7.84074 14.1778 7.41111 14.1778C6.98148 14.1778 6.60556 14.0167 6.28333 13.6944L3.30278 10.7139C3.54444 12.2444 4.26273 13.5266 5.45764 14.5604C6.65255 15.5942 8.05556 16.1111 9.66667 16.1111C10.3648 16.1111 11.063 16.0037 11.7611 15.7889C12.4593 15.5741 13.0903 15.2384 13.6542 14.7819L23.9653 25.0931Z" fill="white"/>
<path d="M9.66699 0.25C12.2864 0.250076 14.5048 1.16407 16.3369 2.99609C18.1691 4.82831 19.083 7.04735 19.083 9.66699C19.083 10.27 19.0308 10.838 18.9268 11.3711C18.8225 11.9056 18.6661 12.4342 18.457 12.957L18.3955 13.1113L18.5127 13.2275L28.3408 22.9746C28.6154 23.2496 28.7499 23.5751 28.75 23.9648C28.75 24.3552 28.6151 24.6818 28.3398 24.957L24.957 28.3398C24.6818 28.6151 24.3552 28.75 23.9648 28.75C23.5747 28.7499 23.2488 28.615 22.9736 28.3398L13.2275 18.5127L13.1113 18.3955L12.957 18.457C12.4342 18.6661 11.9056 18.8225 11.3711 18.9268C10.838 19.0308 10.27 19.083 9.66699 19.083C7.04735 19.083 4.82831 18.1691 2.99609 16.3369C1.16407 14.5048 0.250076 12.2864 0.25 9.66699C0.25 8.72389 0.380891 7.82886 0.641602 6.98145C0.872805 6.23003 1.1857 5.51416 1.58008 4.83398L7.41113 10.665L10.665 7.41113L4.83398 1.58008C5.51416 1.1857 6.23003 0.872805 6.98145 0.641602C7.82886 0.380891 8.72389 0.25 9.66699 0.25ZM13.5176 6.45996C13.7961 6.73846 13.9277 7.05214 13.9277 7.41113C13.9277 7.77012 13.7961 8.08382 13.5176 8.3623L8.3623 13.5176C8.08382 13.7961 7.77012 13.9277 7.41113 13.9277C7.05214 13.9277 6.73846 13.7961 6.45996 13.5176L2.93555 9.99316L3.05566 10.7529C3.30672 12.3429 4.05555 13.6775 5.29395 14.749C6.53525 15.823 7.9971 16.3613 9.66699 16.3613C10.3911 16.3613 11.1142 16.2501 11.835 16.0283C12.4907 15.8265 13.0891 15.5198 13.6318 15.1133L23.9648 25.4463L24.1416 25.2695L25.2295 24.1826L25.4062 24.0059L15.0811 13.6807C15.5101 13.1574 15.8267 12.5614 16.0283 11.8936C16.2499 11.1593 16.3613 10.4169 16.3613 9.66699C16.3613 7.9971 15.823 6.53525 14.749 5.29395C13.6775 4.05555 12.3429 3.30672 10.7529 3.05566L9.99316 2.93555L13.5176 6.45996Z" stroke="black" stroke-opacity="0.15" stroke-width="0.5"/>
</svg>
