<svg id="Слой_1" data-name="Слой 1" xmlns="http://www.w3.org/2000/svg" xmlns:xlink="http://www.w3.org/1999/xlink" viewBox="0 0 523 350"><defs><style>.cls-1{fill:#fff;}.cls-2{fill:url(#Безымянный_градиент_2);}.cls-3{fill:none;stroke:#6dc7f2;stroke-width:0.5px;}</style><linearGradient id="Безымянный_градиент_2" x1="420.94" y1="573.84" x2="420.94" y2="315.81" gradientTransform="matrix(1, 0, 0, -1, -159.44, 577.36)" gradientUnits="userSpaceOnUse"><stop offset="0" stop-color="#8ec8e1"/><stop offset="1" stop-color="#8ad1f3"/></linearGradient></defs><rect class="cls-1" y="97.19" width="523" height="252.81"/><path class="cls-2" d="M0,97.19v82.66c205.73,106.6,330.5,104.78,523,0V97.19H441.72C343-28.55,183.83-25.25,82.29,97.19Z"/><path class="cls-3" d="M64.6,230.14a10.06,10.06,0,0,1,2.24.24,11.61,11.61,0,0,1,1.54.45l-7.64,7.62-.33.33.33.32,5.92,5.9.32.32.33-.32L75,237.36a8,8,0,0,1,.47,1.54,12.47,12.47,0,0,1,.2,2.25,10.91,10.91,0,0,1-11.05,11,12.28,12.28,0,0,1-1.9-.16,6.73,6.73,0,0,1-1.77-.54l-.29-.13-.23.22L23.75,288.09l-6.25-6.23,22.36-22.28.32-.33-.32-.32-5.59-5.57-.33-.33-.32.33-2,2-3.86-3.86-.79-.78v7.63l-1.84,1.84-9.3-9.26,1.85-1.83h7.66l-.79-.79-3.78-3.77L32.13,233.2a10,10,0,0,1,3.38-2.27,10.1,10.1,0,0,1,7.39,0,9.93,9.93,0,0,1,3,1.95l-7.23,7.21-.33.32.33.33,3.78,3.77-2,2-.33.32.33.33,5.59,5.57.32.33.33-.33,7.4-7.37.21-.21-.1-.28a11.61,11.61,0,0,1-.52-1.82,9.14,9.14,0,0,1-.2-1.87,10.91,10.91,0,0,1,11-11Zm10.77,51.72-6.25,6.23L51.77,270.8,58,264.57Z"/><path class="cls-3" d="M491,224.27l0,15.86-7.21,11.94,0,.17a16.61,16.61,0,0,1-.13,7.88,36.12,36.12,0,0,1-4.55,10.38,48.33,48.33,0,0,1-4.79,6.6,24.81,24.81,0,0,1-4.92,4.48,8.42,8.42,0,0,1-.63-10h0A19.62,19.62,0,0,1,471,268.6a21.78,21.78,0,0,0,2.45-3.31,19.45,19.45,0,0,0,2.56-8.55,31.07,31.07,0,0,0-1-10.45l-.1-.38-.38.1a32.17,32.17,0,0,0-9.66,4,19.45,19.45,0,0,0-6.41,6.23,20.63,20.63,0,0,0-1.76,3.74,22.41,22.41,0,0,1-1.09,2.63l-.4.77a8.69,8.69,0,0,1-4.16,3.61,8.18,8.18,0,0,1-5.12.44,24.92,24.92,0,0,1,1.68-6.46,46.37,46.37,0,0,1,3.61-7.31,35.25,35.25,0,0,1,7.09-8.84,17.56,17.56,0,0,1,6.9-3.81l.16,0,7.21-11.93,14-7.43Zm-5.68,6.39-3,4.92.13.21a2,2,0,0,1,.33,1.14,2.46,2.46,0,0,1-.36,1.18,2.28,2.28,0,0,1-1.47,1.1,2.32,2.32,0,0,1-1.8-.29,2.28,2.28,0,0,1-1.1-1.47,2.23,2.23,0,0,1,.29-1.8,2.42,2.42,0,0,1,.87-.87,1.89,1.89,0,0,1,1.17-.24h.24l3-4.92Zm.89,8.13v-.11l.06-8.16v-1.44l-.55.9-1.69-1,.54-.9-1.28.69-7.19,3.85-.1,0-3.78,6.26,10.2,6.15Z"/><path class="cls-3" d="M478.94,12.5v8.8l.73-.72,3.72-3.64,9.91,9.69a8.06,8.06,0,0,1,1.77,2.56,7.63,7.63,0,0,1,.61,3,7.86,7.86,0,0,1-.61,3.07,8,8,0,0,1-1.48,2.3l-5.79-5.68-.31-.29-.3.29-3.72,3.64-2.72-2.65-.3-.3-.3.3L465.27,47.46l-.13.12v5.91L450,68.28a2.63,2.63,0,0,1-.8.54,2.31,2.31,0,0,1-.91.18,2.64,2.64,0,0,1-1-.18,2.44,2.44,0,0,1-.82-.54l-6-5.91a2.34,2.34,0,0,1-.55-.8,2.48,2.48,0,0,1-.18-.93,2.13,2.13,0,0,1,.18-.88,2.59,2.59,0,0,1,.55-.78l15.11-14.79h6.11l.12-.12,2.45-2.39.31-.31-.31-.31L452.44,29.45l-.13-.12h-4.09L440,21.25l7.5-7.34L455.73,22v4l.13.12,11.85,11.61.31.3.3-.3,8.34-8.16.31-.31-.31-.31-2.78-2.72,3.71-3.62.76-.75h-9l-1.56-1.53L477.36,11ZM479.23,44a2.75,2.75,0,0,1,.93.15,2.24,2.24,0,0,1,.78.5L495.59,59a1.93,1.93,0,0,1,.51.75,2.84,2.84,0,0,1,0,1.82,2,2,0,0,1-.51.75l-6.1,6a2.24,2.24,0,0,1-.78.5,2.75,2.75,0,0,1-.93.15,2.85,2.85,0,0,1-.94-.15,2.3,2.3,0,0,1-.77-.5L471.41,53.93a2.13,2.13,0,0,1-.51-.75,2.84,2.84,0,0,1,0-1.82,2.13,2.13,0,0,1,.51-.75l6.11-6a2.21,2.21,0,0,1,.77-.5A2.85,2.85,0,0,1,479.23,44Zm-21.07,4.39-12.22,12-.33.32.33.3h0L448,63l.3.31.31-.31,12.22-12,.13-.12V48.25h-2.7ZM479,50l-2.08,2-.32.31.32.31L487.47,63l.31.3.3-.3,2.09-2,.31-.31-.31-.31L479.6,50l-.3-.3Z"/><path class="cls-3" d="M34.64,8.35A18.07,18.07,0,0,1,48,13.83a18.07,18.07,0,0,1,5.48,13.3,18.47,18.47,0,0,1-.31,3.41,17.54,17.54,0,0,1-.94,3.16l-.11.26.2.2L71.8,53.53h0a2.85,2.85,0,0,1,0,4L65.08,64.3a2.87,2.87,0,0,1-4,0h0L41.67,44.77l-.2-.2-.26.1a17.06,17.06,0,0,1-6.57,1.25,18.11,18.11,0,0,1-13.31-5.48,18.11,18.11,0,0,1-5.48-13.31,18.08,18.08,0,0,1,.79-5.35,20.51,20.51,0,0,1,1.92-4.37L30.16,29l6.36-6.37-11.6-11.6a20.43,20.43,0,0,1,4.36-1.92A18.14,18.14,0,0,1,34.64,8.35Zm1.78,6.44,5.93,5.92a2.68,2.68,0,0,1,.83,1.94,2.64,2.64,0,0,1-.83,1.94L32.1,34.84a2.65,2.65,0,0,1-1.94.84,2.62,2.62,0,0,1-1.94-.84l-5.93-5.92L21.37,28l.21,1.28A13.19,13.19,0,0,0,34.64,40.37a14.52,14.52,0,0,0,4.29-.66,11.61,11.61,0,0,0,3.6-1.85L63.06,58.39l.3-.3,2.16-2.16.3-.3L45.3,35.12a10.06,10.06,0,0,0,1.91-3.58,15.11,15.11,0,0,0,.66-4.41A13.17,13.17,0,0,0,36.79,14.07l-1.29-.2Z"/></svg>