<svg width="35" height="37" viewBox="0 0 35 37" fill="none" xmlns="http://www.w3.org/2000/svg">
<path d="M29.5614 36.956C29.3275 36.956 29.1082 36.9192 28.9035 36.8458C28.6988 36.7724 28.5088 36.6476 28.3333 36.4714L19.386 27.4857C19.2105 27.3095 19.0863 27.1187 19.0132 26.9131C18.9401 26.7075 18.9035 26.4873 18.9035 26.2524C18.9035 26.0175 18.9401 25.7972 19.0132 25.5917C19.0863 25.3861 19.2105 25.1952 19.386 25.019L23.114 21.275C23.2895 21.0988 23.4795 20.974 23.6842 20.9006C23.8889 20.8272 24.1082 20.7905 24.3421 20.7905C24.576 20.7905 24.7953 20.8272 25 20.9006C25.2047 20.974 25.3947 21.0988 25.5702 21.275L34.5175 30.2607C34.693 30.4369 34.8173 30.6278 34.8904 30.8333C34.9635 31.0389 35 31.2591 35 31.494C35 31.729 34.9635 31.9492 34.8904 32.1548C34.8173 32.3603 34.693 32.5512 34.5175 32.7274L30.7895 36.4714C30.614 36.6476 30.424 36.7724 30.2193 36.8458C30.0146 36.9192 29.7953 36.956 29.5614 36.956ZM29.5614 32.7714L30.8333 31.494L24.386 25.019L23.114 26.2964L29.5614 32.7714ZM5.48246 37C5.24854 37 5.02193 36.956 4.80263 36.8679C4.58333 36.7798 4.38597 36.6476 4.21053 36.4714L0.526316 32.7714C0.350877 32.5952 0.219298 32.397 0.131579 32.1768C0.0438597 31.9565 0 31.729 0 31.494C0 31.2591 0.0438597 31.0389 0.131579 30.8333C0.219298 30.6278 0.350877 30.4369 0.526316 30.2607L9.82456 20.9226H13.5526L15.0439 19.425L7.80702 12.1571H5.30702L0 6.82738L4.95614 1.85L10.2632 7.17976V9.69048L17.5 16.9583L22.5877 11.8488L20.7018 9.95476L23.1579 7.4881H18.2018L16.9737 6.25476L23.2018 0L24.4298 1.23333V6.21071L26.886 3.74405L33.114 9.99881C33.6111 10.498 33.9912 11.0633 34.2544 11.6946C34.5175 12.326 34.6491 12.994 34.6491 13.6988C34.6491 14.4036 34.5175 15.079 34.2544 15.725C33.9912 16.371 33.6111 16.9437 33.114 17.4429L29.386 13.6988L26.9298 16.1655L25.0877 14.3155L16.0088 23.4333V27.1333L6.71053 36.4714C6.53509 36.6476 6.34503 36.7798 6.14035 36.8679C5.93567 36.956 5.71637 37 5.48246 37ZM5.48246 32.7714L12.9386 25.2833V24.006H11.6667L4.21053 31.494L5.48246 32.7714ZM5.48246 32.7714L4.21053 31.494L4.86842 32.1107L5.48246 32.7714Z" fill="white"/>
<path d="M24.1797 1.33594V6.81641L24.6074 6.38672L26.8857 4.09863L32.9365 10.1748C33.4114 10.6517 33.7731 11.1905 34.0234 11.791C34.2735 12.3909 34.3994 13.0265 34.3994 13.6992C34.3994 14.3718 34.2732 15.0152 34.0225 15.6309C33.8033 16.1687 33.4992 16.6526 33.1094 17.084L29.5635 13.5225L29.3857 13.3447L29.209 13.5225L26.9297 15.8105L25.2646 14.1387L25.0879 13.9609L24.9102 14.1387L15.832 23.2568L15.7588 23.3301V27.0303L6.5332 36.2949C6.37772 36.4511 6.21411 36.5646 6.04199 36.6387C5.87008 36.7127 5.68408 36.75 5.48242 36.75C5.28078 36.75 5.08548 36.7121 4.89551 36.6357C4.70943 36.5609 4.54039 36.4483 4.3877 36.2949L0.703125 32.5947C0.550514 32.4414 0.43881 32.2712 0.364258 32.084C0.288193 31.893 0.250012 31.697 0.25 31.4941C0.25 31.2913 0.287582 31.1045 0.361328 30.9316C0.435197 30.7585 0.547763 30.5936 0.703125 30.4375L9.92773 21.1729H13.6562L13.7295 21.0986L15.2207 19.6016L15.3965 19.4248L15.2207 19.249L7.98438 11.9805L7.91113 11.9072H5.41113L0.351562 6.82715L4.95508 2.20312L10.0127 7.28223V9.79395L10.0859 9.86719L17.3232 17.1348L17.5 17.3125L17.6768 17.1348L22.7646 12.0254L22.9404 11.8486L22.7646 11.6729L21.0537 9.9541L23.335 7.66406L23.7598 7.23828H18.3057L17.3262 6.25391L23.2012 0.354492L24.1797 1.33594ZM24.3418 21.04C24.5491 21.04 24.7404 21.0728 24.916 21.1357C25.0809 21.1949 25.2397 21.2978 25.3926 21.4512L34.3408 30.4375C34.4936 30.591 34.5962 30.751 34.6553 30.917C34.7181 31.0936 34.75 31.2856 34.75 31.4941C34.75 31.7027 34.7181 31.8946 34.6553 32.0713C34.5962 32.2373 34.4936 32.3972 34.3408 32.5508L30.6123 36.2949C30.4593 36.4486 30.2999 36.5511 30.1348 36.6104C29.9592 36.6733 29.7688 36.706 29.5615 36.7061C29.3543 36.7061 29.1638 36.6733 28.9883 36.6104C28.8232 36.5511 28.6637 36.4486 28.5107 36.2949L19.5635 27.3096C19.4105 27.1559 19.3081 26.9953 19.249 26.8291C19.1862 26.6525 19.1533 26.4605 19.1533 26.252C19.1534 26.0436 19.1863 25.8523 19.249 25.6758C19.3081 25.5096 19.4105 25.349 19.5635 25.1953L23.291 21.4512C23.444 21.2975 23.6035 21.195 23.7686 21.1357C23.9441 21.0728 24.1346 21.0401 24.3418 21.04ZM11.4893 23.8291L4.0332 31.3174L3.85156 31.5L4.0332 31.6699V31.6709L5.30566 32.9482L5.47656 33.1318L5.65918 32.9482L13.1162 25.46L13.1885 25.3867V23.7559H11.5625L11.4893 23.8291ZM24.209 24.8428L22.9365 26.1201L22.7617 26.2969L22.9365 26.4727L29.3838 32.9482L29.5615 33.126L29.7383 32.9482L31.0107 31.6709L31.1865 31.4941L31.0107 31.3174L24.5635 24.8428L24.3857 24.665L24.209 24.8428Z" stroke="black" stroke-opacity="0.15" stroke-width="0.5"/>
</svg>
