<svg xmlns="http://www.w3.org/2000/svg" viewBox="0 0 196.57 196.57"><defs><style>.cls-1{fill:#35aae0;}.cls-2{fill:#269ad6;}.cls-3{fill:#2fa2dc;}.cls-4{fill:#010102;}.cls-5{fill:#fff;}.cls-6{fill:#c8daea;}</style></defs><g id="Слой_2" data-name="Слой 2"><g id="Слой_1-2" data-name="Слой 1"><path class="cls-1" d="M103.66,0h.77c.19.38.2.45.65.37a12.85,12.85,0,0,1,3.28.21c2.39.2,4.77.54,7.13,1a95.78,95.78,0,0,1,12.36,3.07,104.69,104.69,0,0,1,10.54,4,91.6,91.6,0,0,1,12.17,6.51,90.15,90.15,0,0,1,12.65,9.54c2,1.87,4.13,3.65,6,5.64a96.12,96.12,0,0,1,17.57,25.38c1.2,2.56,2.36,5.14,3.33,7.79.9,2.44,1.7,4.91,2.44,7.4.66,2.23,1.21,4.48,1.73,6.73s1,4.81,1.27,7.24H143.49a2.52,2.52,0,0,0-1.41.19,1.43,1.43,0,0,1,0-.29c1.67-7.36,3.36-14.71,4.47-22.18a13.28,13.28,0,0,0,.09-5,2.49,2.49,0,0,0-2.09-1.94,10.06,10.06,0,0,0-4.14.52c-6.95,2.54-13.93,5-20.88,7.58C108.24,67.91,97,72.08,85.65,76.2c-2,.73-3.93,1.59-6,2.14a9.14,9.14,0,0,0-2.89-.4H2.94c-.32,0-.57-.08-.66-.42a65.08,65.08,0,0,1,2.26-8.84,98.25,98.25,0,0,1,20.9-36.4A98.7,98.7,0,0,1,57.55,8.82,98.7,98.7,0,0,1,90.19.34c.2,0,.67.23.61-.34h2.11c.13.33.25.16.38,0h9.79C103.27.21,103.47.25,103.66,0Z"/><path class="cls-2" d="M92.91,196.57H91c-.26-.33-.26-.33-.72-.37a93.5,93.5,0,0,1-23.34-4.78,97.46,97.46,0,0,1-49.4-37.16A95,95,0,0,1,2.15,118.63H71.23c.09.2.2.4.28.6q3,8.34,6,16.67a11,11,0,0,0,1.84,3.66c1.17,1.35,2,1.5,3.49.59a24.89,24.89,0,0,0,4.63-4c2.82-2.78,5.74-5.45,8.74-8.05a9.39,9.39,0,0,1,2.63-2c7.23,5.09,14.55,10,21.39,15.65,2.59,2.12,7.12,2.45,8.83-2.51.06-.15.11-.3.16-.45l.13-.4c.43-2.19,1-4.35,1.58-6.5a2,2,0,0,1,1.12-.2h5.37l53.23,0c-.08.24-.13.49-.22.73a97.51,97.51,0,0,1-21.14,33.74c-1.09,1.14-2.3,2.18-3.46,3.24s-2.37,2.34-3.6,3.41A96.37,96.37,0,0,1,124.54,193a94.21,94.21,0,0,1-18.24,3.21c-.26,0-.68-.16-.72.36h-1.92c-.19-.27-.39-.23-.58,0H93.29C93.16,196.42,93,196.22,92.91,196.57Z"/><path class="cls-3" d="M190.67,131.7l-53.23,0h-5.37a2,2,0,0,0-1.12.2c0-.16,0-.31.08-.47q3.81-15.91,7.64-31.83c1.15-4.84,2.27-9.69,3.41-14.54a2.52,2.52,0,0,1,1.41-.19h52.09a48.52,48.52,0,0,1,.63,5.25c0,.3-.21.78.36.9v1.73c-.12-.06-.16,0-.17.1a.22.22,0,0,0,.17.28v10.56l-.14.18h.14v1.73c-.33.26-.33.26-.36.72a88,88,0,0,1-1.77,12.3A83.8,83.8,0,0,1,190.67,131.7Z"/><path class="cls-3" d="M71.23,118.63H2.15c-.07-.28-.16-.55-.21-.83A96.93,96.93,0,0,1,.35,106.3c0-.25.16-.67-.35-.72v-1.73c.28-.19.22-.38,0-.58V92.91l.14-.18H0V90.8c.48.09.32-.31.34-.5.22-1.9.37-3.8.63-5.69a51.59,51.59,0,0,1,1.31-7.1c.09.34.34.43.66.42H76.78a9.14,9.14,0,0,1,2.89.4c-4,1.53-8,3.08-12,4.6-7.19,2.72-14.37,5.45-21.44,8.49A18.57,18.57,0,0,0,42,93.63a2.87,2.87,0,0,0-1.31,2.22,3.12,3.12,0,0,0,2.45,3c5.09,1.67,10.2,3.31,15.28,5,2.91,1,5.86,1.79,8.71,2.91A42.44,42.44,0,0,0,68.53,111C69.42,113.52,70.33,116.07,71.23,118.63Z"/><path class="cls-4" d="M103.66,0c-.19.25-.39.21-.58,0Z"/><path class="cls-4" d="M0,103.27c.22.2.28.39,0,.58Z"/><path class="cls-4" d="M103.08,196.57c.19-.23.39-.27.58,0Z"/><path class="cls-4" d="M93.29,0c-.13.16-.25.33-.38,0Z"/><path class="cls-4" d="M196.57,93.1a.22.22,0,0,1-.17-.28c0-.1,0-.16.17-.1Z"/><path class="cls-4" d="M92.91,196.57c.13-.35.25-.15.38,0Z"/><path class="cls-4" d="M0,92.72H.14L0,92.91Z"/><path class="cls-4" d="M196.57,103.85h-.14l.14-.18Z"/><path class="cls-5" d="M67.11,106.8c-2.85-1.12-5.8-2-8.71-2.91-5.08-1.69-10.19-3.33-15.28-5a3.12,3.12,0,0,1-2.45-3A2.87,2.87,0,0,1,42,93.63a18.57,18.57,0,0,1,4.24-2.2c7.07-3,14.25-5.77,21.44-8.49,4-1.52,8-3.07,12-4.6,2-.55,4-1.41,6-2.14,11.3-4.12,22.59-8.29,33.89-12.42,6.95-2.54,13.93-5,20.88-7.58a10.06,10.06,0,0,1,4.14-.52,2.49,2.49,0,0,1,2.09,1.94,13.28,13.28,0,0,1-.09,5c-1.11,7.47-2.8,14.82-4.47,22.18a1.43,1.43,0,0,0,0,.29c-1.14,4.85-2.26,9.7-3.41,14.54q-3.81,15.92-7.64,31.83c0,.16-.05.31-.08.47-.58,2.15-1.15,4.31-1.58,6.5l-.13.4c-.05.15-.1.3-.16.45-1.71,5-6.24,4.63-8.83,2.51-6.84-5.62-14.16-10.56-21.39-15.65-.12-.1-.24-.2-.37-.29L82.86,115.19c-1.08-.74-1.14-1.23-.22-2.12s1.73-1.61,2.6-2.4c5.08-4.57,10.17-9.13,15.22-13.73,3.47-3.15,6.91-6.35,10.34-9.56q6.54-6.13,12.76-12.59a18.59,18.59,0,0,0,2.56-3.1c.13-.23.28-.47.08-.71s-.48-.14-.71,0c-.46.22-.92.44-1.36.7-4.39,2.56-8.71,5.23-13,7.9-13,8-25.92,16.16-38.85,24.29C70.57,104.89,69,106.18,67.11,106.8Z"/><path class="cls-6" d="M67.11,106.8c1.92-.62,3.46-1.91,5.13-3,12.93-8.13,25.85-16.28,38.85-24.29,4.33-2.67,8.65-5.34,13-7.9.44-.26.9-.48,1.36-.7.23-.12.51-.21.71,0s0,.48-.08.71a18.59,18.59,0,0,1-2.56,3.1q-6.23,6.43-12.76,12.59c-3.43,3.21-6.87,6.41-10.34,9.56-5,4.6-10.14,9.16-15.22,13.73-.87.79-1.76,1.58-2.6,2.4s-.86,1.38.22,2.12L98.49,125.8c.13.09.25.19.37.29a9.39,9.39,0,0,0-2.63,2c-3,2.6-5.92,5.27-8.74,8.05a24.89,24.89,0,0,1-4.63,4c-1.53.91-2.32.76-3.49-.59a11,11,0,0,1-1.84-3.66q-3-8.34-6-16.67c-.08-.2-.19-.4-.28-.6-.9-2.56-1.81-5.11-2.7-7.67A42.44,42.44,0,0,1,67.11,106.8Z"/><path class="cls-3" d="M129.24,138.78l.13-.4Z"/></g></g></svg>