<svg xmlns="http://www.w3.org/2000/svg" viewBox="0 0 216.24 228.31"><defs><style>.cls-1{fill:#5e5da6;}</style></defs><g id="Слой_2" data-name="Слой 2"><g id="Слой_1-2" data-name="Слой 1"><path class="cls-1" d="M102.28,0H108a10.62,10.62,0,0,0,1.58.26c4,.14,8.12.08,12.16.41,7.25.6,14.53,1.16,21.73,2.21a122.11,122.11,0,0,1,32.92,9.66c13.49,6.14,23.64,15.58,29.81,29.21,6.74,14.86,9.18,30.62,9.87,46.72a255.21,255.21,0,0,1-1.8,41.26,102.66,102.66,0,0,1-5.18,23.39c-5.88,16-16.15,28.13-31.58,35.73-6.92,3.41-14.31,5.43-21.76,7.14a204.67,204.67,0,0,1-20.3,3.56,192,192,0,0,1-20.18,1.57c-8,.16-15.95-.25-23.92-.51a2.74,2.74,0,0,0-2.4,1.06c-6.65,7.48-13.3,15-20.07,22.32a16.56,16.56,0,0,1-4.77,3.47,7.39,7.39,0,0,1-10.44-4.1,12.17,12.17,0,0,1-1-4.17c-.13-7.79-.12-15.6-.16-23.4,0-2.13,0-2.1-2.07-2.75-10.53-3.28-20-8.42-27.83-16.27-9-9-14.53-20.05-17.88-32.24a136.27,136.27,0,0,1-4.42-33,16.88,16.88,0,0,0-.29-2V98a19.2,19.2,0,0,0,.27-2.12A185.14,185.14,0,0,1,2.54,67.33C4.19,57.51,6.88,48,11.61,39.19,15.48,32,20.26,25.48,26.85,20.46,37,12.73,48.65,8.31,60.89,5.27a178.68,178.68,0,0,1,39.82-5A9.4,9.4,0,0,0,102.28,0ZM58.91,198.83h-.13c0,1.49,0,3,0,4.46,0,4.92-.11,9.83-.08,14.75,0,1.13,0,2.53,1.34,3s2.51-.3,3.53-1.18c.17-.15.33-.31.48-.47,2.56-2.79,5.19-5.52,7.65-8.39,6.93-8.07,13.84-16.16,20.63-24.34a5.47,5.47,0,0,1,5.12-2.18,210,210,0,0,0,38-1.79,193.13,193.13,0,0,0,25.31-5.4c13.93-3.87,24.35-12.17,31-25.1a68.13,68.13,0,0,0,7-24.92c.75-8.11,1.42-16.24,1.77-24.37a151.48,151.48,0,0,0-1.18-24.81,106.33,106.33,0,0,0-6-25.25c-4.74-12.4-12.64-21.68-25.19-26.88a126.54,126.54,0,0,0-36.55-9c-8-.77-16-1.07-24-1.28a161.46,161.46,0,0,0-27.34,1.71c-10.46,1.53-20.67,4-30.3,8.45-6.13,2.86-11.85,6.35-16.39,11.46a56.69,56.69,0,0,0-10.65,18A100.41,100.41,0,0,0,17,87c-.38,9.94-.23,19.91-.07,29.87a90.21,90.21,0,0,0,3.77,24.06,56.78,56.78,0,0,0,11.88,22.21,52.28,52.28,0,0,0,24.72,15.3,1.87,1.87,0,0,1,1.61,2.15C58.86,186.66,58.91,192.75,58.91,198.83Z"/><path class="cls-1" d="M141.92,161.91a30.24,30.24,0,0,1-9.59-2.82c-14.94-6.49-29.15-14.26-41.67-24.79a122.05,122.05,0,0,1-23.84-27A166.11,166.11,0,0,1,49.51,74c-1.26-3.43-2-7-.38-10.52a24.26,24.26,0,0,1,3.39-5.32,44.06,44.06,0,0,1,10.23-8.77c4.43-2.77,8.38-2.07,11.72,1.88A178.1,178.1,0,0,1,88.3,70.38C91.22,75,90.21,81,85.89,83.8a45.09,45.09,0,0,0-3.75,2.89,6.58,6.58,0,0,0-2.48,7.48c6,17.94,17.33,30.83,35.87,36.54a7.29,7.29,0,0,0,8-2.68c1-1.25,2-2.44,2.88-3.75a9.32,9.32,0,0,1,12.9-2.67q5.78,3.61,11.34,7.58c2.82,2,5.47,4.26,8.17,6.44,3.84,3.1,4.56,7,2.13,11.4a39.32,39.32,0,0,1-9,10.56,17.51,17.51,0,0,1-7.2,3.86C143.88,161.69,142.89,161.76,141.92,161.91Z"/><path class="cls-1" d="M166.11,100c0,1,0,2,0,3a2.62,2.62,0,0,1-2.64,2.67,2.69,2.69,0,0,1-2.64-2.69c-.51-5-.69-10.17-1.65-15.14a50.92,50.92,0,0,0-40.74-40A113.73,113.73,0,0,0,107,46.71c-2.46-.18-3.91-2-2.93-3.93a2.72,2.72,0,0,1,2.63-1.54,58.35,58.35,0,0,1,20.81,3.41c20.22,7.61,32.77,21.94,37.12,43.19.82,4,1.14,8.09,1.69,12.14Z"/><path class="cls-1" d="M151.14,94.87c0,.72,0,1.44,0,2.16a2.74,2.74,0,0,1-2.42,2.66A2.59,2.59,0,0,1,146,97.77a13.73,13.73,0,0,1-.25-3.08A32.38,32.38,0,0,0,135,70.31,33.82,33.82,0,0,0,118,62.13c-1.94-.36-3.91-.57-5.87-.82a2.72,2.72,0,1,1,.41-5.42c8.18.78,16,2.79,22.75,7.69a37.15,37.15,0,0,1,15.34,25q.27,1.59.42,3.21c.09,1,.11,2.07.16,3.1Z"/><path class="cls-1" d="M116.82,71.56c10,.69,17.06,5.73,18.9,16.49.2,1.2.32,2.41.47,3.61a2.82,2.82,0,0,1-2.42,3.19c-1.58.16-2.71-.95-3-2.63a40.86,40.86,0,0,0-1.44-7c-1.64-4.79-5.4-7.11-10.2-8a24.05,24.05,0,0,0-2.54-.28c-2.07-.16-3.22-1.24-3.13-3S114.67,71.53,116.82,71.56Z"/></g></g></svg>