<svg xmlns="http://www.w3.org/2000/svg" viewBox="0 0 103.23 103.07"><defs><style>.cls-1{fill:#654495;}.cls-2{fill:#583189;}.cls-3{fill:#623a8e;}.cls-4{fill:#fff;}.cls-5{fill:#e7e6e6;}.cls-6{fill:#5b358b;}.cls-7{fill:#5f398e;}.cls-8{fill:#f0ecf6;}.cls-9{fill:#674192;}.cls-10{fill:#653e91;}.cls-11{fill:#613a8e;}.cls-12{fill:#5d378c;}.cls-13{fill:#5e398e;}.cls-14{fill:#f2f0f3;}.cls-15{fill:#5a338a;}.cls-16{fill:#684293;}.cls-17{fill:#5c358c;}.cls-18{fill:#f3f1f5;}.cls-19{fill:#5b348b;}.cls-20{fill:#f7f5f8;}.cls-21{fill:#5d378d;}.cls-22{fill:#eee9f5;}.cls-23{fill:#f2f0f6;}.cls-24{fill:#f7f5f9;}.cls-25{fill:#ede8f5;}.cls-26{fill:#efebf4;}.cls-27{fill:#f9f7fb;}.cls-28{fill:#faf8fc;}.cls-29{fill:#f2f1f4;}.cls-30{fill:#f6f4f8;}.cls-31{fill:#efebf5;}.cls-32{fill:#faf7fc;}.cls-33{fill:#faf8fb;}.cls-34{fill:#f5f4f8;}.cls-35{fill:#633b8f;}.cls-36{fill:#5a328a;}.cls-37{fill:#5c368c;}.cls-38{fill:#694293;}.cls-39{fill:#674092;}.cls-40{fill:#5d368c;}.cls-41{fill:#f7f4fa;}.cls-42{fill:#9a7db8;}.cls-43{fill:#efecf4;}.cls-44{fill:#f3f1f6;}.cls-45{fill:#f5f3f7;}.cls-46{fill:#f3f0f5;}.cls-47{fill:#f3f0f7;}.cls-48{fill:#f5f4f6;}.cls-49{fill:#f1eef7;}.cls-50{fill:#5a338b;}.cls-51{fill:#ece7f4;}.cls-52{fill:#efebf6;}.cls-53{fill:#fcfbfd;}.cls-54{fill:#fbfafd;}.cls-55{fill:#f9f8fc;}.cls-56{fill:#f8f7f9;}.cls-57{fill:#a087be;}.cls-58{fill:#f6f5f8;}.cls-59{fill:#f5f4f7;}.cls-60{fill:#e7e6e7;}.cls-61{fill:#f5f3f9;}.cls-62{fill:#f6f4f7;}.cls-63{fill:#f2f0f4;}.cls-64{fill:#5f3a8e;}.cls-65{fill:#f1eff5;}.cls-66{fill:#f0edf4;}.cls-67{fill:#59328a;}.cls-68{fill:#f2eff6;}.cls-69{fill:#f8f6fa;}.cls-70{fill:#f0ebf6;}.cls-71{fill:#f4f2f5;}.cls-72{fill:#623b8f;}.cls-73{fill:#fcfafd;}.cls-74{fill:#f8f6f9;}.cls-75{fill:#f4f2f6;}.cls-76{fill:#f4f3f6;}.cls-77{fill:#f5f2f8;}.cls-78{fill:#5a3289;}.cls-79{fill:#faf9fc;}.cls-80{fill:#f3f2f5;}.cls-81{fill:#5c358b;}.cls-82{fill:#f5f3f8;}</style></defs><g id="Слой_2" data-name="Слой 2"><g id="Слой_1-2" data-name="Слой 1"><path class="cls-1" d="M58.7,102.51a5.61,5.61,0,0,1-2.65.4,52,52,0,0,1-25.68-4.4A51.32,51.32,0,0,1,13.28,86,50.81,50.81,0,0,1,1.34,63.2a38.1,38.1,0,0,1-1.13-8,4.23,4.23,0,0,0,0-2A.54.54,0,0,1,0,52.79a52.92,52.92,0,0,1,4.36-22A50.94,50.94,0,0,1,17.18,13.13a50.39,50.39,0,0,1,13-8.51,53.71,53.71,0,0,1,12-3.8A43.28,43.28,0,0,1,49,.05c1.79,0,3.56-.08,5.35,0a50.79,50.79,0,0,1,31,12.4,50.92,50.92,0,0,1,14.8,21.27,51.92,51.92,0,0,1,3.11,15.5c.12,2.27-.15,4.51-.06,6.76a1,1,0,0,1-.22.82c-.46-.54-.27-1.19-.26-1.79a2.48,2.48,0,0,0-.76-1.95c-4.51-4.55-9.06-9-13.58-13.58-3.28-3.29-6.56-6.57-9.83-9.88-.27-.27-.47-.68-.95-.65-.29-.09-.34-.33-.4-.57a.76.76,0,0,0-.55-.73c-.34-.2-.53-.55-.81-.8s-.44-.47-.69-.68-.46-.3-.67-.48a4.43,4.43,0,0,0-.87-.68,12.05,12.05,0,0,0-1.82-1.18c-.23-.13-.47-.23-.7-.34A37.62,37.62,0,0,0,63.3,21a2.91,2.91,0,0,1-1.54-.5c0-.1-.11-.29.15-.2-.07-.21-.19-.07-.28,0a4.27,4.27,0,0,1-.6.21c-.32,0-.65.07-.84-.28,0-.17.17-.17.22-.3a5,5,0,0,1-1,.38c-.39,0-.79.13-1-.34.09-.27.35-.15.53-.23a3.86,3.86,0,0,0-.49.06c-.3.12-.61.19-.91.28a2.25,2.25,0,0,1-.52.08A3.44,3.44,0,0,1,55.48,20a.32.32,0,0,1-.15-.27c0-.11.15-.14.23-.2-.87.35-1.82,0-2.69.35A5.51,5.51,0,0,1,51.8,20a16.48,16.48,0,0,1-2.63-.06c-.8-.28-1.65-.08-2.45-.32.05.05.12.08.14.16-.34.58-.88.39-1.37.36a4,4,0,0,1-.9-.25c-.42-.22-.12.11-.16.19-.21.3-.51.28-.82.24a5.73,5.73,0,0,1-.9-.25s-.15-.13-.14,0,.13.13.09.25a3,3,0,0,1-1.85.45c-.61-.08-1.24-.29-1.74.29a19.34,19.34,0,0,1-3.63,1.21c-7.27,2.2-11.18,7.35-12.75,14.52a42,42,0,0,0-.9,7.16c0,.4.11.91-.5,1.05l-.09-.19c0-.06,0,0,0,.08a31.86,31.86,0,0,1,.13,5.94c0,.05-.39.36.1.25a1,1,0,0,1,.38,1c0,.92.2,1.82.17,2.73.06.4-.53.81,0,1.2.54,1.34.59,2.78,1,4.15a19.62,19.62,0,0,0,3.74,7.5A1.33,1.33,0,0,1,27,68a1,1,0,0,0,.64.73C29,69.9,30.45,70.92,31.9,72c.29.52.84.48,1.31.58a.83.83,0,0,1,.65.28c.17.62.67.19,1,.3s.76.17.9.6a2.58,2.58,0,0,1,.36,1.56c0,2,0,3.91,0,5.86a6.67,6.67,0,0,0,1.75,2.06,3.07,3.07,0,0,0,.82,1Q47.1,92.64,55.48,101a3,3,0,0,0,2.64,1.24A.61.61,0,0,1,58.7,102.51Z"/><path class="cls-2" d="M58.7,102.51A3.88,3.88,0,0,1,55.09,101c-5.53-5.63-11.15-11.18-16.72-16.77-.24-.24-.73-.38-.56-.89,3.13-.88,4.58-3.71,6.69-5.76A5.49,5.49,0,0,0,45,77a3.94,3.94,0,0,1,3.59-1.65c2.33.12,4.68.09,7,0A4.14,4.14,0,0,0,57,75.27a6.07,6.07,0,0,1,1.2-.09,3.6,3.6,0,0,0,1-.11,5.3,5.3,0,0,1,.8-.1,2.89,2.89,0,0,0,.78-.12,4,4,0,0,1,.78-.09,2.88,2.88,0,0,0,.76-.13c.25-.06.51-.09.77-.13.42-.11.84-.2,1.25-.32a28.59,28.59,0,0,0,6.34-1.9c.24-.11.49-.22.72-.34a19.23,19.23,0,0,0,4.56-3.4,3.61,3.61,0,0,0,.73-.73,33.75,33.75,0,0,0,2.91-5,10.85,10.85,0,0,0,.34-1.06A18.56,18.56,0,0,0,80.82,58a6.42,6.42,0,0,1,.12-.88c.26-1.74.34-3.49.53-5.23.06-.78,0-1.56.09-2.34a18.24,18.24,0,0,0,0-4.61,12.07,12.07,0,0,1-.09-2.08,5.77,5.77,0,0,1,0-.72,9.45,9.45,0,0,1-.19-1.51,2.94,2.94,0,0,0-.11-.78,4.19,4.19,0,0,1-.11-.78,4,4,0,0,0-.12-.6,5.26,5.26,0,0,1-.12-.78,13,13,0,0,0-.32-1.37c-.1-.47-.24-.92-.34-1.39-.16-.65-.41-1.28-.61-1.93A4.11,4.11,0,0,0,79,31.8a10.86,10.86,0,0,1-1.33-2.92c.2-.69.42-.1.55,0,1.63,1.61,3.25,3.24,4.87,4.86L90.24,41,98,48.8c1.38,1.38,2.74,2.8,4.18,4.12a2.17,2.17,0,0,1,.77,1.91c-.05.65,0,1.31,0,2a38,38,0,0,1-1.53,8.53,49.55,49.55,0,0,1-8.2,16.81,51.26,51.26,0,0,1-16,14.22,49.65,49.65,0,0,1-13.63,5.34A20.51,20.51,0,0,1,58.7,102.51Z"/><path class="cls-3" d="M.17,53.28a2.08,2.08,0,0,1,0,2Z"/><path class="cls-4" d="M55.6,75.65a64.41,64.41,0,0,1-7.86,0,2.11,2.11,0,0,0-1.82.77c-1.48,1.7-3,3.39-4.52,5-1,1-1.92,2.15-3.59,1.89a3.24,3.24,0,0,1-1.74-2,52.17,52.17,0,0,1-.15-5.59c-.05-.7.27-1.45-.28-2.09l-.93-.37c-.37.17-.6-.08-.86-.26a.59.59,0,0,0-.58-.24,2.83,2.83,0,0,1-1.37-.66,23.94,23.94,0,0,1-4.41-3.28,1.2,1.2,0,0,1-.68-.7,23,23,0,0,1-4.89-12c0-.1-.1-.19-.15-.28-.24-.26-.15-.54-.07-.82a36.35,36.35,0,0,0-.37-4,26.43,26.43,0,0,1,0-6c.33-2.34.44-4.7.84-7C23,32.9,25,28.44,29,25.13a18.35,18.35,0,0,1,6-3.05c1.38-.45,2.77-.86,4.16-1.29a2.61,2.61,0,0,1,1.48-.28,7.44,7.44,0,0,0,2-.39c.25-.23.53-.14.81-.06a1.37,1.37,0,0,0,1-.15c.25-.25.52-.15.8-.06a3.26,3.26,0,0,0,1.61-.16A4.16,4.16,0,0,1,49,19.63l2.86.07a8.89,8.89,0,0,1,.11,3c0,.78.23,1.17,1.06,1.1A1.25,1.25,0,0,1,54,24c.26.22.08.36-.14.48-1.88.23-3.78.14-5.67.27A33.92,33.92,0,0,0,40,26a6,6,0,0,1-1.39.25,9.84,9.84,0,0,0-1.76.51,14.65,14.65,0,0,0-7.49,6,15.17,15.17,0,0,0-1.85,4.9A24.88,24.88,0,0,0,26.86,41a3.51,3.51,0,0,1-.09.65,2.75,2.75,0,0,0-.12,1c0,.58-.2,1.14-.21,1.72a4.57,4.57,0,0,1,0,.74,62.58,62.58,0,0,0,0,6.71,4,4,0,0,0,.1,1.24,4.12,4.12,0,0,1,.1.86,2.88,2.88,0,0,0,.13,1c.05.22.08.44.11.66.17,1,.3,2,.53,3,.09.36.2.72.3,1.08a10.86,10.86,0,0,0,.56,1.57c.1.23.21.46.32.69a13.71,13.71,0,0,0,7.27,6.65l.76.29a2.14,2.14,0,0,1,1.62,1.44c.15,3,0,6,.06,9,0,.49-.18,1,.25,1.43a8.08,8.08,0,0,0,2.2-2.08c2-2.06,3.66-4.36,5.56-6.48a3.57,3.57,0,0,1,2.19-1.34,2.48,2.48,0,0,1,1,0,27.07,27.07,0,0,0,3.6.11c.52.06,1.1-.09,1.62.37-.43.59-1.05.42-1.57.4-.87,0-1.23.23-1.2,1.19,0,2.42,0,2.41,2.42,2.48C54.84,75.23,55.4,75,55.6,75.65Z"/><path class="cls-5" d="M54.07,24.3c-.41-.47-1-.23-1.44-.23-.63,0-.94-.16-.88-.86a34.21,34.21,0,0,1,.12-3.51L53,19.62a5.53,5.53,0,0,1,2.36.06.91.91,0,0,1,.11.16,3,3,0,0,1-1.53.12,23.22,23.22,0,0,0,3.23-.05l.46-.07a.85.85,0,0,1,.83.05,2,2,0,0,0,1.15.16c.21-.07.42-.13.61.06a1.26,1.26,0,0,0,.93.16c.21-.07.42-.13.61.06,2.15.58,4.36,1,6.47,1.71a17.45,17.45,0,0,1,3.08,1.3c.09.3.35.31.59.33a5.31,5.31,0,0,1,1.79,1.16,2,2,0,0,0,1,.74l.56.46a1.2,1.2,0,0,0,.67.64l.88.89a3.17,3.17,0,0,1,.63.74l.25.58a14.41,14.41,0,0,1,1.56,2.76,3.29,3.29,0,0,0,.48,1.2,13.35,13.35,0,0,0,.64,1.94c0,.51.29,1,.3,1.48,0,0,0,.06.05.06a.26.26,0,0,0,.1,0,3.8,3.8,0,0,1,.35,1.41c-.06.27-.23.56.09.79s.17.33.13.52-.28.58.08.82a.75.75,0,0,1,.14.72,1.7,1.7,0,0,0,.19,1.53l0,.67a10,10,0,0,0-.09,2c0,.14-.05,0,0,.1s.09-.09.16,0a13.89,13.89,0,0,1,0,4.77c-.3-.31-.06-.7-.17-1A31.14,31.14,0,0,0,81.76,52a32.07,32.07,0,0,1-.58,5.35c-.13-.1-.2-.2-.08-.34a.22.22,0,0,0-.08.2,2.47,2.47,0,0,0,.08.94,16.46,16.46,0,0,1-1,3.77c-.24.31-.51.62-.37,1.07a22.44,22.44,0,0,1-3,5.07,1.26,1.26,0,0,0-.66.68,16.55,16.55,0,0,1-4.63,3.46.58.58,0,0,0-.64.26,18.64,18.64,0,0,1-6.52,2c-.34.16-.74,0-1.07.19s-.7-.07-.95.27a.77.77,0,0,1-.73.14c-.27,0-.57-.27-.81.08a.74.74,0,0,1-.73.14c-.27,0-.57-.27-.81.08a1.1,1.1,0,0,1-.95.14c-.42-.06-.85-.25-1.25.08a2.14,2.14,0,0,1-1.39.13,7.09,7.09,0,0,0-2.79-.15c-.76,0-1.22-.14-1-1,0,0,0-.08,0-.11,0-.93-.3-2,.11-2.74s1.75-.1,2.66-.42c-.37-.25-.79,0-1.15-.16a.26.26,0,0,1,.11-.31,2.91,2.91,0,0,1,1.37-.15,1.92,1.92,0,0,1,.48.07,8,8,0,0,0,1.29.25c.36.09-.14-.17,0-.21.25-.35.61-.31,1-.27a1.17,1.17,0,0,0,1.21-.1.94.94,0,0,1,.43-.1,1,1,0,0,1,.3,0c.32.09.64.22.89-.15a.71.71,0,0,1,.43-.06.77.77,0,0,0,.92-.17c.51-.07,1-.38,1.53-.29a9.11,9.11,0,0,0,4-1.06,1.07,1.07,0,0,1,.86-.44c.23-.13.69.28.73-.31.75-.72,1.75-1.09,2.56-1.74A2.6,2.6,0,0,0,73,64.6,16.49,16.49,0,0,1,74.76,62c.5-.06.23-.45.29-.69a.52.52,0,0,1,.26-.49,5.78,5.78,0,0,0,.82-3.3A4.78,4.78,0,0,1,76.38,56c.68-.13.14-.54.19-.82a.59.59,0,0,1,.23-.65c.06-.1.27.18.22,0s-.19-.66-.28-1c-.06-.68.2-1.33.14-2a1.84,1.84,0,0,1,.15-.8.38.38,0,0,1,.22-.17,11.23,11.23,0,0,0,.06-2.39,32.93,32.93,0,0,1,.11-3.58c0-.15,0-.23,0-.08l-.1,0a.34.34,0,0,1-.24-.11,1,1,0,0,1-.12-.57,2.5,2.5,0,0,1,0-.29,10.06,10.06,0,0,0,.29-1.53c0,.18,0,.37-.14.51a.35.35,0,0,1-.29-.1,1.43,1.43,0,0,1-.19-.79c0-.48-.17-.94-.13-1.42a3,3,0,0,1,.23-.72s.22-.13,0-.13c0,0-.07.09-.16.07-.27-.14-.28-.39-.26-.64a1.85,1.85,0,0,0,0-1.14c-.2-.43,0-1-.48-1.33a2.47,2.47,0,0,1-.58-1.49,3.26,3.26,0,0,0-.93-2.21,21.89,21.89,0,0,1-1.76-2.33,1.24,1.24,0,0,0-.84-.85c-.85-.52-1.59-1.19-2.42-1.73A2,2,0,0,0,68,27a.77.77,0,0,1-.39-.17c-.31-.3-.69-.23-1.06-.22-2.22-.62-4.49-1-6.73-1.48-.41-.24-.81-.53-1.33-.33a1.27,1.27,0,0,1-.28.06,1,1,0,0,1-.57-.06l-.24-.15a1.76,1.76,0,0,0-1.37,0,2.67,2.67,0,0,1-.48.08,2.71,2.71,0,0,1-1.35-.16A.21.21,0,0,1,54.07,24.3Z"/><path class="cls-6" d="M35.64,73.68c.68.09.38.61.39.94,0,2.24,0,4.49,0,6.74-.5.06-.24-.33-.24-.48,0-1.74,0-3.49,0-5.24A5.65,5.65,0,0,0,35.64,73.68Z"/><path class="cls-7" d="M21.33,45v6c-.07.07-.21.45-.22.12-.06-2.36,0-4.72,0-7.2C21.4,44.33,21.23,44.69,21.33,45Z"/><path class="cls-8" d="M57.15,19.91c-1.09.41-2.19.07-3.3,0l1.6-.08Z"/><path class="cls-9" d="M55.34,19.68,53,19.62c1-.4,2-.09,3.15-.21C55.85,19.76,55.57,19.6,55.34,19.68Z"/><path class="cls-10" d="M49,19.63l-2.13.06a.69.69,0,0,1-.26-.21A5.09,5.09,0,0,1,49,19.63Z"/><path class="cls-11" d="M40.65,20.51a4.68,4.68,0,0,1-1.48.28A1.08,1.08,0,0,1,40.65,20.51Z"/><path class="cls-12" d="M31.9,72.15a4.45,4.45,0,0,1,1.37.66C32.71,72.81,32.15,72.81,31.9,72.15Z"/><path class="cls-13" d="M77.37,28.3c-.38-.1-.65-.3-.63-.74C77.33,27.48,77.35,27.89,77.37,28.3Z"/><path class="cls-14" d="M75.86,26.67c-.51.09-.71-.16-.67-.64Z"/><path class="cls-15" d="M58.44,19.89l-.83-.05c.41-.33.86-.17,1.32,0Z"/><path class="cls-15" d="M43.5,20.06l-.81.06a.59.59,0,0,1-.2-.06c-.1-.07-.11-.18,0-.17C42.86,19.89,43.22,19.76,43.5,20.06Z"/><path class="cls-16" d="M45.27,19.85l-.8.06a.59.59,0,0,1-.2-.06c-.1-.05-.15-.17,0-.18C44.61,19.66,45,19.54,45.27,19.85Z"/><path class="cls-17" d="M33.85,73.05l.86.26C34.3,73.62,34,73.51,33.85,73.05Z"/><path class="cls-18" d="M74.63,25.57a.89.89,0,0,1-1-.74A2.49,2.49,0,0,1,74.63,25.57Z"/><path class="cls-19" d="M21.7,55.05l.07.82C21.31,55.63,21.5,55.34,21.7,55.05Z"/><path class="cls-15" d="M60.2,20.11l-.61-.06c.21-.24.49-.18.76-.17.12,0,.15.09,0,.17A.6.6,0,0,1,60.2,20.11Z"/><path class="cls-15" d="M61.74,20.33l-.61-.06c.21-.24.49-.18.76-.16s.15.09,0,.17A1.05,1.05,0,0,1,61.74,20.33Z"/><path class="cls-20" d="M71.88,23.67c-.35.18-.63.22-.59-.33Z"/><path class="cls-21" d="M26.81,68.17l.68.7A.6.6,0,0,1,26.81,68.17Z"/><path class="cls-22" d="M81.76,52a7.67,7.67,0,0,1,0-3.27c0,.31.07.63.1.94C81.81,50.4,81.79,51.18,81.76,52Z"/><path class="cls-8" d="M81.84,44.85l-.09.5a4.63,4.63,0,0,1,0-2.61C81.79,43.44,81.81,44.15,81.84,44.85Z"/><path class="cls-23" d="M80.26,34.82a4.24,4.24,0,0,1-.66-2c.05-.09.1-.08.16,0l.65,2Z"/><path class="cls-24" d="M80.26,34.82h.15c.11.49.22,1,.34,1.46C80.23,35.91,80.26,35.36,80.26,34.82Z"/><path class="cls-25" d="M81.73,42.07c-.64-.44-.43-1-.19-1.53C81.6,41.05,81.67,41.56,81.73,42.07Z"/><path class="cls-26" d="M79.76,32.84H79.6a1.22,1.22,0,0,1-.42-1.2A2.86,2.86,0,0,1,79.76,32.84Z"/><path class="cls-27" d="M57,75.52c.39-.48.82-.3,1.25-.08Z"/><path class="cls-28" d="M81.1,58.1c-.3-.29-.18-.66-.17-1,0-.16.13-.1.18,0a.68.68,0,0,1,.07.2C81.15,57.57,81.12,57.83,81.1,58.1Z"/><path class="cls-29" d="M76.08,68.69c.06-.39.11-.78.66-.68A1.66,1.66,0,0,1,76.08,68.69Z"/><path class="cls-30" d="M79.76,62.94c-.32-.52-.06-.82.37-1.07C80,62.22,79.88,62.58,79.76,62.94Z"/><path class="cls-31" d="M63.09,74.61c.34-.4.79-.18,1.2-.21-.34.33-.81.2-1.2.36Z"/><path class="cls-32" d="M81.4,39.82c-.55-.23-.24-.53-.08-.82Z"/><path class="cls-28" d="M81.19,38.48c-.46-.22-.32-.5-.09-.79Z"/><path class="cls-27" d="M63.09,74.61v.15l-.82.1C62.41,74.35,62.82,74.7,63.09,74.61Z"/><path class="cls-33" d="M60.73,75.08c.22-.48.52-.28.81-.08Z"/><path class="cls-28" d="M59.19,75.3c.22-.55.53-.24.81-.08Z"/><path class="cls-34" d="M70.81,72.41c.07-.42.27-.54.64-.26C71.25,72.27,71.08,72.45,70.81,72.41Z"/><path class="cls-1" d="M63.32,69.79c-.55-.14-1,.59-1.54.23a.85.85,0,0,1-.87.22h-.45a.85.85,0,0,1-.87.22l-.25-.08c-.31,0-.68-.29-.84.24a.59.59,0,0,1-.67.06,2,2,0,0,0-1.17.14,1.62,1.62,0,0,1-1.26.07l-.46-.07a13.3,13.3,0,0,0-1.82-.08.39.39,0,0,1,.33.14.87.87,0,0,0-.07.17,26.45,26.45,0,0,1-4-.16c.57-.32,1.19,0,1.78-.16.14,0,0-.12,0-.11-.91.35-1.9-.11-2.81.27-1.34.26-2,1.38-2.8,2.28-1.84,2.16-3.54,4.43-5.58,6.42-.44.44-.72,1.06-1.3,1.39s-.58-.31-.58-.67c0-2.32,0-4.65,0-7A14.84,14.84,0,0,0,38,70c-.31-.65-1-.8-1.55-1.11a.52.52,0,0,0-.63-.24,12.84,12.84,0,0,1-7.46-6.81.53.53,0,0,0-.26-.63,3.84,3.84,0,0,1-.62-1.57c.19-.42-.11-.72-.26-1.07a11.31,11.31,0,0,1-.62-3.1,1.74,1.74,0,0,0,.07-.91c0,.06,0,.21-.13.33a1.4,1.4,0,0,1-.16-1,4.66,4.66,0,0,0,.08-1.3.44.44,0,0,1-.14.5A2.16,2.16,0,0,1,26.16,52a1.55,1.55,0,0,0,.08-.85c-.15-2.06.09-4.11-.08-6.17l0-.66a2.3,2.3,0,0,0,.18-1.76,1.41,1.41,0,0,1,.16-1c.15.1.14.24.13.39-.12-.09-.11.2-.11.24a1.62,1.62,0,0,0,0-1.2c.47-4.09,1.44-8,4.53-11a14.22,14.22,0,0,1,5.58-3.47A3.07,3.07,0,0,0,38.4,26a58,58,0,0,1,6.26-1.31,92.41,92.41,0,0,1,9.41-.38.47.47,0,0,0,0,.17,6.07,6.07,0,0,1-1.89.11,22.93,22.93,0,0,0,3.38-.06l.47-.07a.51.51,0,0,1,.42,0l.25.13c.5.1,1,.41,1.52.2v-.08a1.54,1.54,0,0,1,1.32.19,67.31,67.31,0,0,1,7.27,1.59,1.12,1.12,0,0,1,.86.32l.24.12a2.62,2.62,0,0,1,1.52.75,17.56,17.56,0,0,1,2.4,1.69,2,2,0,0,1,.9.91,18,18,0,0,1,1.73,2.44,4,4,0,0,1,1,2.13L76,36.4c.36.51.28,1.17.54,1.71a1,1,0,0,1,0,.65.73.73,0,0,0,.15.72c.22.17.14.39.07.6l.15,1.56c-.07.29-.21.58,0,.84l.17.09c.26.32.14.68.07,1l-.07.24c-.22.68.23,1.27.24,1.92,0,1.07,0,2.15,0,3.22a9.38,9.38,0,0,0-.25,2.53L77,53.73c.07.28.17.57-.07.82a.73.73,0,0,0-.15.72.73.73,0,0,1-.22.65l-.22,1.76A7.7,7.7,0,0,1,75.4,61a.47.47,0,0,0-.19.45c.08.28-.07.45-.28.6L73.2,64.67a4.23,4.23,0,0,1-1.62,1.55c-.67.87-1.78,1.1-2.61,1.74a.5.5,0,0,1-.59.28l-.94.38A9.88,9.88,0,0,1,63.32,69.79Z"/><path class="cls-15" d="M38,70a1.25,1.25,0,0,1,.23.86q0,4.55,0,9.09c0,.4-.19.93.48,1-.36.38-.65.37-.7-.19s-.06-1.31-.06-2C38,75.89,38,72.94,38,70Z"/><path class="cls-35" d="M26.16,44.93a12.55,12.55,0,0,1,.17,4,7,7,0,0,1-.17,3A41.14,41.14,0,0,1,26.16,44.93Z"/><path class="cls-36" d="M48.4,70.89c.23-.5.68-.2,1-.23a4.46,4.46,0,0,1,2,.23h-3Z"/><path class="cls-37" d="M38.4,26a1.48,1.48,0,0,1-1.69.53A5,5,0,0,1,38.4,26Z"/><path class="cls-38" d="M26.38,42.51c.22.62.52,1.24-.18,1.76Z"/><path class="cls-16" d="M26.32,53.13l.08-.73a1.65,1.65,0,0,1,0,1.53Z"/><path class="cls-19" d="M27.22,58.57l.14-.25c.05.44.51.84.12,1.32A2.32,2.32,0,0,1,27.22,58.57Z"/><path class="cls-39" d="M26.6,41c.31.32.2.7.14,1.09-.27-.11-.13-.36-.2-.52Z"/><path class="cls-9" d="M26.54,54.89l.1-.78c.19.65.25,1,0,1.36Z"/><path class="cls-37" d="M35.82,68.65c.43-.19.55-.15.63.24A.79.79,0,0,1,35.82,68.65Z"/><path class="cls-40" d="M28.1,61.21c.42.07.55.27.26.63C28.25,61.64,28.06,61.48,28.1,61.21Z"/><path class="cls-41" d="M77.34,44.56l.09-.5.13,0v7h-.13l-.09-.49c-.4-.78,0-1.57,0-2.35A22.37,22.37,0,0,1,77.34,44.56Z"/><path class="cls-42" d="M77.34,44.56v6l-.15.08a2.5,2.5,0,0,1,0-1.53V45.57a1.32,1.32,0,0,1,0-1.1Z"/><path class="cls-43" d="M63.32,69.79l4.12-1.17.08.08A6.7,6.7,0,0,1,63.32,69.79Z"/><path class="cls-44" d="M75.4,61l.93-3.28A4.07,4.07,0,0,1,75.4,61Z"/><path class="cls-36" d="M55.6,24.52a8.81,8.81,0,0,1-3.72-.05h2.23Z"/><path class="cls-45" d="M75.47,34.81l-1-2.13A2.09,2.09,0,0,1,75.47,34.81Z"/><path class="cls-46" d="M71.58,66.22l1.62-1.55A2,2,0,0,1,71.58,66.22Z"/><path class="cls-15" d="M53.45,70.88c-.22-.09-.5.08-.73-.22a5.16,5.16,0,0,1,2.22.16Z"/><path class="cls-47" d="M76.48,38.18A5.18,5.18,0,0,1,76,36.4c.54.28.46.79.47,1.27A.34.34,0,0,1,76.48,38.18Z"/><path class="cls-15" d="M77.15,49.12l0,1.53-.06.86A3.29,3.29,0,0,1,77.15,49.12Z"/><path class="cls-48" d="M69.46,27.64l-1.52-.75A1.29,1.29,0,0,1,69.46,27.64Z"/><path class="cls-49" d="M77.21,43.6c0-.35,0-.69-.07-1s0-.49.08-.73A2.2,2.2,0,0,1,77.21,43.6Z"/><path class="cls-50" d="M77.19,44.47c0,.37,0,.73,0,1.1a1.75,1.75,0,0,1,0-1.73Z"/><path class="cls-51" d="M59.57,24.86l-1.32-.19C58.72,24.48,59.21,24.2,59.57,24.86Z"/><path class="cls-15" d="M58.26,24.75a1.71,1.71,0,0,1-1.76-.06.93.93,0,0,1,1.11,0Z"/><path class="cls-52" d="M55.4,70.89l1.26-.07c.06.08.46.13.15.21A1.55,1.55,0,0,1,55.4,70.89Z"/><path class="cls-53" d="M76.55,55.92c-.12-.29.11-.45.22-.65a.77.77,0,0,1,.11.89Z"/><path class="cls-28" d="M56.48,24.52l-.41-.07a1.18,1.18,0,0,1,1.51.09A2.05,2.05,0,0,1,56.48,24.52Z"/><path class="cls-54" d="M60.91,70.24c.31,0,.52-.37.87-.22C61.76,70.52,61.61,70.56,60.91,70.24Z"/><path class="cls-54" d="M59.59,70.46c.31,0,.52-.37.87-.22C60.44,70.74,60.29,70.77,59.59,70.46Z"/><path class="cls-55" d="M57.83,70.68c.22-.1.53.06.67-.25.14-.13.28-.15.41,0C58.67,71.11,58.25,70.91,57.83,70.68Z"/><path class="cls-44" d="M72.76,30.24l-.9-.91A.87.87,0,0,1,72.76,30.24Z"/><path class="cls-54" d="M76.92,54.55l.07-.82c.29.29.17.65.17,1,0,.14-.11.14-.18,0A.66.66,0,0,1,76.92,54.55Z"/><path class="cls-56" d="M68.38,68.24,69,68C69,68.5,68.74,68.48,68.38,68.24Z"/><path class="cls-57" d="M56.48,24.52l1.1,0a.4.4,0,0,0,0,.15H56.5A.88.88,0,0,0,56.48,24.52Z"/><path class="cls-56" d="M74.93,62l.28-.6C75.45,61.77,75.47,62,74.93,62Z"/><path class="cls-15" d="M58.91,70.46l-.41,0c.26-.39.55-.27.84-.05Z"/><path class="cls-58" d="M67.7,26.77c-.3-.09-.63-.08-.86-.32C67.28,26.12,67.49,26.45,67.7,26.77Z"/><path class="cls-19" d="M77,42.48c-.39-.25-.29-.54,0-.84Z"/><path class="cls-59" d="M76.48,38.18l0-.51a.76.76,0,0,1,0,1.09Z"/><path class="cls-54" d="M76.77,40.08l-.07-.6.12-.27s.12.06.12.1C77,39.58,77,39.86,76.77,40.08Z"/><path class="cls-4" d="M34.69,39.44a.71.71,0,0,0-.16-.71.4.4,0,0,1,0-.6,10.29,10.29,0,0,1,3.75-4.48,11.66,11.66,0,0,1,1.79-1c.48-.3.86,0,1.26.2a27.51,27.51,0,0,1,5.48,7.73.34.34,0,0,1,0,.56,5.25,5.25,0,0,1-2,2.47c-1.22.92-1.37,1.53-.82,2.93a15.1,15.1,0,0,0,2.8,4.77.73.73,0,0,1,.42.44,13.61,13.61,0,0,0,4.64,3.53A38.82,38.82,0,0,1,52,60.45c0,.22-.09.44-.4.34a8.83,8.83,0,0,1-2.53-1.55,37.77,37.77,0,0,1-5.8-5.15,32.55,32.55,0,0,1-4.9-6.87c-.1-.19-.24-.36-.35-.54-.35-.13-.32-.48-.42-.75L35,40.26C34.74,40,34.51,39.8,34.69,39.44Z"/><path class="cls-5" d="M51.6,60.79c.4-.65.1-1.35.15-2a33.92,33.92,0,0,1,.12-3.49l.24.12a.93.93,0,0,0,.86.31l.23,0a.68.68,0,0,0,.87.22,2.08,2.08,0,0,0,2.06-1.15,2.27,2.27,0,0,0,1.22-1.12,2.32,2.32,0,0,1,3.4,0,31,31,0,0,0,2.8,1.93,1.94,1.94,0,0,0,1,.73l.34.25a1.1,1.1,0,0,0,.76.63l.34.24a.6.6,0,0,0,.45.42c.37.2.24.75.65.91a1.08,1.08,0,0,1,0,1.06l-1.32,2.37a3.59,3.59,0,0,1-1.31,1.37L62.87,64.7c-.27.17-.5.43-.86.26a4.79,4.79,0,0,1-3.32-.69A.59.59,0,0,0,58,64a1.84,1.84,0,0,1-.89-.42,1.6,1.6,0,0,0-1.09-.47l-2-1a4.73,4.73,0,0,0-1.74-1Z"/><path class="cls-60" d="M65.48,43a2.67,2.67,0,0,1-.39-1.15.6.6,0,0,0-.24-.66,26.9,26.9,0,0,0-2.21-3.48A4,4,0,0,0,61,36.16L58.9,34.68a1.33,1.33,0,0,0-1.08-.55,15.17,15.17,0,0,0-4-1c-.21.08-.42.14-.61-.05,0,0,0-.11-.08-.16-.21-.32-.53-.15-.79-.14-.6,0-.87-.16-.85-.79s.22-.78.86-.79a16,16,0,0,0,2.57.18c.65-.13,1.17.36,1.78.37.37-.17.6.09.87.25a.47.47,0,0,0,.45.2c.28-.07.45.1.65.24a44,44,0,0,1,4.85,3.51,1,1,0,0,1,.18.22c.07.29.16.56.47.67a11.15,11.15,0,0,1,2.19,3.51,12.8,12.8,0,0,0,.93,2.6,3.5,3.5,0,0,1,.37,1.59c-.22.41.09.67.25,1,.08.17.16.34,0,.52l-.07.46A1.35,1.35,0,0,0,68.21,48c.05.15.08.3-.08.41l-.43.48c-.25.26-.57.14-.86.18-1-.74-.7-1.84-.85-2.82a6,6,0,0,0,.07-1.42.37.37,0,0,1-.14.39,1.32,1.32,0,0,1-.15-1A1.53,1.53,0,0,0,65.48,43Z"/><path class="cls-60" d="M63.56,43.6a21.35,21.35,0,0,1,.22,2.88c-.08.59-.13,1.09-.89,1.09s-.89-.48-1-1.08c0-.38.11-.8-.14-1.16a.91.91,0,0,1-.06-.85h.09c.23-.6-.18-1.05-.34-1.57a3.22,3.22,0,0,0-.89-1.71l-.82-1a1.43,1.43,0,0,0-1-1,9.28,9.28,0,0,0-4.73-2,.33.33,0,0,1-.14-.17A6.69,6.69,0,0,0,52.77,37c-1.08-.92-1.1-1-.22-1.65.43-.1.87.17,1.29,0a5.62,5.62,0,0,1,1.82.37c.32.18.62.46,1,.29A9.21,9.21,0,0,1,60,37.89a7.23,7.23,0,0,0,1.33,1.32l1,1.55a.72.72,0,0,0,.29.65l.63,1.14A1.86,1.86,0,0,1,63.56,43.6Z"/><path class="cls-60" d="M59.16,45.88c-.88.91-1-.08-1.31-.53,0-.24.09-.51-.22-.65V44a1.33,1.33,0,0,0-.56-1.29l-.16-.23c-.1-.3-.27-.52-.62-.51l-2.9-1a2.31,2.31,0,0,1-.17-.94C54,39,55,39.61,55.83,39.76a3.05,3.05,0,0,1,1.76,1,1.27,1.27,0,0,0,.67.66c.5.39.51,1.06.86,1.54a1.25,1.25,0,0,0,.27,1,.76.76,0,0,1,.15.72A4,4,0,0,1,59.16,45.88Z"/><path class="cls-61" d="M54.94,31.34c-.78.51-1.55,0-2.32-.06-.57,0-.83.1-.87.72s.39.62.82.62a4.5,4.5,0,0,1,.63.07s0,.07,0,.1a.47.47,0,0,1-.06.09,9.72,9.72,0,0,1-1.62-.07c-.52-.1-1.17-.52-1-1a1.25,1.25,0,0,1,1.43-.89,6.25,6.25,0,0,0,1.72.13.47.47,0,0,1,.61,0Z"/><path class="cls-62" d="M67.31,42.91a3.93,3.93,0,0,1-.93-2.6A7.5,7.5,0,0,1,67.31,42.91Z"/><path class="cls-63" d="M61,36.16a2,2,0,0,1,1.62,1.55Z"/><path class="cls-64" d="M64.4,63.58a6.55,6.55,0,0,1,1.31-1.37A1.5,1.5,0,0,1,64.4,63.58Z"/><path class="cls-14" d="M61.34,39.21A1.65,1.65,0,0,1,60,37.89l.43.25a.62.62,0,0,1,.43.43Z"/><path class="cls-65" d="M60.59,41.21c.74.35.87,1,1,1.75.1.1.09.19,0,.26Z"/><path class="cls-63" d="M57.35,53.71a1.13,1.13,0,0,1-1.22,1.12Z"/><path class="cls-66" d="M52.32,61.19a1.94,1.94,0,0,1,1.74,1A5.49,5.49,0,0,1,52.32,61.19Z"/><path class="cls-19" d="M41.3,32.85,40,32.65C40.58,32.25,40.8,32.28,41.3,32.85Z"/><path class="cls-47" d="M65.48,43c.48.36.52.54.29,1.26Z"/><path class="cls-36" d="M53.23,33l.61.05c-.56.36-1.16.13-1.75,0Z"/><path class="cls-67" d="M68,46c-.06-.15,0-.37-.23-.43a.43.43,0,0,1,0-.65C68.59,45.14,68.08,45.61,68,46Z"/><path class="cls-39" d="M68.13,48.4l0-.4a.3.3,0,0,1,0-.38l.06-.72a2.48,2.48,0,0,1,.11,1.54s-.06,0-.09,0A.24.24,0,0,1,68.13,48.4Z"/><path class="cls-22" d="M68.13,47.62l0,.38c-.62-.44-.42-1-.18-1.53Z"/><path class="cls-45" d="M57.07,42.75c.55.27.92.62.56,1.29Z"/><path class="cls-68" d="M59.39,44c-.51-.24-.58-.6-.27-1A1.92,1.92,0,0,1,59.39,44Z"/><path class="cls-69" d="M61.53,43.22l0-.26c.27.48.65.94.26,1.53Z"/><path class="cls-15" d="M61.73,44.48l.06.85c-.08.23.07.51-.19.74C61.58,45.51,61.41,45,61.73,44.48Z"/><path class="cls-70" d="M65.92,45.21,66,44.7c.15.53.34,1,0,1.54Z"/><path class="cls-71" d="M66.84,49.06c.24-.27.56-.15.86-.18C67.53,49.51,67.3,49.81,66.84,49.06Z"/><path class="cls-62" d="M56.06,63.14c.53-.23.86,0,1.09.47A1.92,1.92,0,0,1,56.06,63.14Z"/><path class="cls-55" d="M53.84,35.29a1.15,1.15,0,0,1-1.29,0C53,34.78,53.41,35.36,53.84,35.29Z"/><path class="cls-72" d="M63.56,43.6a1.94,1.94,0,0,1-.27-1.05A.64.64,0,0,1,63.56,43.6Z"/><path class="cls-73" d="M52.77,37a1.53,1.53,0,0,1,1.32-.09s0,.07,0,.1l-.08.08a1.64,1.64,0,0,1-1,0Z"/><path class="cls-74" d="M56.7,36a.64.64,0,0,1-1-.29Z"/><path class="cls-59" d="M57.82,34.13c.57-.23.87.06,1.08.55Z"/><path class="cls-75" d="M58.82,39.23a.85.85,0,0,1,1,1Z"/><path class="cls-63" d="M58.26,41.41c-.5.06-.72-.17-.67-.66A1.39,1.39,0,0,1,58.26,41.41Z"/><path class="cls-73" d="M57.63,44.7l.33-.24a.77.77,0,0,1-.11.89C57.74,45.15,57.51,45,57.63,44.7Z"/><path class="cls-15" d="M67,59.84l0-1.06c.43.31.18.72.16,1.1l-.09,0Z"/><path class="cls-51" d="M54.07,56c-.39.32-.69.28-.87-.22Z"/><path class="cls-18" d="M64.51,56.33a.88.88,0,0,1-1-.73A2.56,2.56,0,0,1,64.51,56.33Z"/><path class="cls-76" d="M65.61,57.21c-.42,0-.84,0-.76-.63A1.86,1.86,0,0,1,65.61,57.21Z"/><path class="cls-77" d="M59.16,45.88a2.11,2.11,0,0,1,.38-1.16A1,1,0,0,1,59.16,45.88Z"/><path class="cls-76" d="M53.22,40.1c.3.27.17.62.17.94C53,40.8,52.86,40.49,53.22,40.1Z"/><path class="cls-37" d="M34.69,39.44l.28.82C34.43,40.14,34.4,39.84,34.69,39.44Z"/><path class="cls-37" d="M62,65l.86-.26C62.7,65.19,62.41,65.25,62,65Z"/><path class="cls-78" d="M61.75,65.21a1.5,1.5,0,0,1-1.08.09C61,65.05,61.24,65.19,61.75,65.21Z"/><path class="cls-57" d="M53,37l1.06,0a1.11,1.11,0,0,0,.07.16C53.72,37.08,53.26,37.56,53,37Z"/><path class="cls-18" d="M64.19,36.8c-.46,0-.54-.1-.64-.7.23-.06.33.08.4.27Z"/><path class="cls-75" d="M56.29,42c.47-.15.73,0,.62.51Z"/><path class="cls-37" d="M57.59,32l-.87-.25C57.13,31.39,57.4,31.53,57.59,32Z"/><path class="cls-20" d="M64.85,41.19c.37.11.56.29.24.66A.89.89,0,0,1,64.85,41.19Z"/><path class="cls-13" d="M60.87,38.57l-.43-.43C60.86,38,61,38.15,60.87,38.57Z"/><path class="cls-7" d="M47.23,51.75l-.42-.44C47.2,51.22,47.38,51.34,47.23,51.75Z"/><path class="cls-15" d="M34.5,38.13l0,.6c-.35.22-.27-.13-.24-.22S34.06,38,34.5,38.13Z"/><path class="cls-58" d="M53,55.71c-.44.33-.65,0-.86-.31C52.4,55.48,52.74,55.47,53,55.71Z"/><path class="cls-79" d="M67.75,44.93v.65a.73.73,0,0,1-.06-1.08Z"/><path class="cls-80" d="M66.4,57.87c-.43.17-.57,0-.45-.42Z"/><path class="cls-7" d="M64,36.37l-.4-.27a1.28,1.28,0,0,1,0-.19C64,35.81,64.13,35.93,64,36.37Z"/><path class="cls-81" d="M50.55,24.54h.73C51,24.79,50.81,24.71,50.55,24.54Z"/><path class="cls-82" d="M62.66,41.41c-.44-.06-.48-.3-.29-.65A1,1,0,0,1,62.66,41.41Z"/><path class="cls-40" d="M37.6,45.93l.42.75C37.32,46.73,37.67,46.21,37.6,45.93Z"/><path class="cls-37" d="M58.69,32.4a.86.86,0,0,1-.65-.24C58.41,31.85,58.59,32,58.69,32.4Z"/><path class="cls-67" d="M46.78,41.14v-.56c.45-.16.21.21.24.34S47.14,41.37,46.78,41.14Z"/><path class="cls-15" d="M54.25,31.1l-.61,0c.2-.27.49-.2.76-.19s.16.09.05.17A.43.43,0,0,1,54.25,31.1Z"/><path class="cls-58" d="M58,64c.37-.32.55-.14.65.24A.86.86,0,0,1,58,64Z"/></g></g></svg>