<svg xmlns="http://www.w3.org/2000/svg" viewBox="0 0 144.59 144.59"><defs><style>.cls-1{fill:#53b152;}.cls-2{fill:#fff;}</style></defs><g id="Слой_2" data-name="Слой 2"><g id="Слой_1-2" data-name="Слой 1"><path class="cls-1" d="M5.56,140.09A2.5,2.5,0,0,1,5.77,139c2.19-8,4.36-16.07,6.63-24.07a3.11,3.11,0,0,0-.5-2.84A73.31,73.31,0,0,1,4.68,97.91,76,76,0,0,1,1.21,85.63C1,84.35.75,83.05.6,81.76A76,76,0,0,1,.1,68.53,71.26,71.26,0,0,1,7.63,40,72.16,72.16,0,0,1,38.74,8.3,70.21,70.21,0,0,1,59.6,1.13a72.31,72.31,0,0,1,73.31,31.71,71.25,71.25,0,0,1,10,23.72,72.51,72.51,0,0,1,1.51,21,65.26,65.26,0,0,1-1.17,8.72c-.33,1.6-.74,3.18-1.14,4.76a67.52,67.52,0,0,1-7.46,17.84,69,69,0,0,1-5,7.36c-1.15,1.46-2.31,2.92-3.58,4.28-1,1-1.88,2.15-2.92,3.13s-2,2-3.11,2.92a81,81,0,0,1-9,6.75,79.61,79.61,0,0,1-10,5.32,70.09,70.09,0,0,1-16.2,4.89,72.86,72.86,0,0,1-16.09,1c-2.07-.09-4.12-.27-6.17-.55a72,72,0,0,1-23.94-7.67c-1.76-.93-3.47-1.93-5.17-3a1.44,1.44,0,0,0-1.23-.21c-2.15.59-4.32,1.14-6.48,1.71l-6.39,1.67-8,2.1C9.44,139.1,7.51,139.59,5.56,140.09ZM43.78,32.17V32.1H41.85A7.58,7.58,0,0,0,36.64,34,22.36,22.36,0,0,0,34,36.64a25.52,25.52,0,0,0-2.91,4.22,25.16,25.16,0,0,0-2.65,15.86,31.38,31.38,0,0,0,1,4.51,37.29,37.29,0,0,0,2.41,5.85A70.3,70.3,0,0,0,37.35,76,106.37,106.37,0,0,0,53.8,95.16a74.47,74.47,0,0,0,13,9.54,73.23,73.23,0,0,0,11.6,5.14,69.73,69.73,0,0,0,14.45,4,22.75,22.75,0,0,0,8.7-.46,23.83,23.83,0,0,0,11-6.51A9.61,9.61,0,0,0,115,103a25,25,0,0,0,1.45-8.53,2.43,2.43,0,0,0-1.4-2.42c-.22-.1-.43-.26-.65-.37-4.21-2.11-8.44-4.19-12.71-6.2A38.4,38.4,0,0,0,95.9,83a2.7,2.7,0,0,0-3.09.66c-1.45,1.83-2.8,3.73-4.31,5.51-1.15,1.35-2.24,2.73-3.44,4a2.92,2.92,0,0,1-3.6.71c-2.69-1.18-5.4-2.34-8-3.77A57.24,57.24,0,0,1,62.4,82.1a55.63,55.63,0,0,1-5.83-6.35,71.91,71.91,0,0,1-5.21-7.52c-1.29-2.17-1.14-3,.56-4.88,2.08-2.27,4.22-4.51,5.49-7.4a4,4,0,0,0,.08-3.35c-1.8-4.16-3.42-8.39-5.18-12.57a53.1,53.1,0,0,0-2.42-5.39,4.32,4.32,0,0,0-4.09-2.47C45.13,32.19,44.45,32.17,43.78,32.17Z"/><path class="cls-2" d="M43.78,32.17c.67,0,1.35,0,2,0a4.32,4.32,0,0,1,4.09,2.47A53.1,53.1,0,0,1,52.31,40c1.76,4.18,3.38,8.41,5.18,12.57A4,4,0,0,1,57.41,56c-1.27,2.89-3.41,5.13-5.49,7.4-1.7,1.85-1.85,2.71-.56,4.88a71.91,71.91,0,0,0,5.21,7.52A55.63,55.63,0,0,0,62.4,82.1a57.24,57.24,0,0,0,11.08,8.05c2.58,1.43,5.29,2.59,8,3.77a2.92,2.92,0,0,0,3.6-.71c1.2-1.29,2.29-2.67,3.44-4,1.51-1.78,2.86-3.68,4.31-5.51A2.7,2.7,0,0,1,95.9,83a38.4,38.4,0,0,1,5.75,2.46c4.27,2,8.5,4.09,12.71,6.2.22.11.43.27.65.37a2.43,2.43,0,0,1,1.4,2.42A25,25,0,0,1,115,103a9.61,9.61,0,0,1-2.46,3.85,23.83,23.83,0,0,1-11,6.51,22.75,22.75,0,0,1-8.7.46,69.73,69.73,0,0,1-14.45-4,73.23,73.23,0,0,1-11.6-5.14,74.47,74.47,0,0,1-13-9.54A106.37,106.37,0,0,1,37.35,76a70.3,70.3,0,0,1-5.48-8.91,37.29,37.29,0,0,1-2.41-5.85,31.38,31.38,0,0,1-1-4.51,25.16,25.16,0,0,1,2.65-15.86A25.52,25.52,0,0,1,34,36.64,22.36,22.36,0,0,1,36.64,34a7.58,7.58,0,0,1,5.21-1.87h1.93Z"/></g></g></svg>